<svg width="99" height="99" viewBox="0 0 99 99" fill="none" xmlns="http://www.w3.org/2000/svg">
<path d="M99 35.5507L86.4141 13.9493C82.5045 16.1812 66.1696 28.2705 56.1277 38.1015C59.6892 24.5507 62.0725 4.46377 62.0725 0H36.9275C36.9275 4.46377 39.3108 24.5773 42.8723 38.1015C32.8304 28.2705 16.4688 16.1812 12.5859 13.9493L0 35.5507C3.90966 37.7826 22.6278 45.8068 36.2313 49.5C22.6278 53.2198 3.90966 61.2174 0 63.4493L12.5859 85.0507C16.4955 82.8188 32.8304 70.7295 42.8723 60.8986C39.3108 74.4493 36.9275 94.5362 36.9275 99H62.0725C62.0725 94.5362 59.6892 74.4227 56.1277 60.8986C66.1696 70.7295 82.5312 82.8188 86.4141 85.0507L99 63.4493C95.0903 61.2174 76.3722 53.1932 62.7687 49.5C76.3722 45.7802 95.0903 37.7826 99 35.5507Z" fill="#FF4D08"/>
</svg>
